<svg width="18" height="22" viewBox="0 0 18 22" fill="none" xmlns="http://www.w3.org/2000/svg">
<path fill-rule="evenodd" clip-rule="evenodd" d="M17.9994 8.92919C17.9998 8.96308 18 8.99702 18 9.031V18H0V9.031C0 4.043 4.03 0 9 0C9.42907 0 9.85113 0.0301334 10.2642 0.0884067C10.0921 0.696025 10 1.33726 10 2C10 2.02378 10.0001 2.04753 10.0004 2.07126C9.67364 2.0243 9.33965 2 9 2C5.134 2 2 5.148 2 9.031V16H16V9.031C16 8.99695 15.9998 8.96295 15.9993 8.92901C16.3261 8.97579 16.6602 9 17 9C17.3393 9 17.673 8.97586 17.9994 8.92919ZM10.7678 20.7678C11.2366 20.2989 11.5 19.663 11.5 19H6.5C6.5 19.663 6.76339 20.2989 7.23223 20.7678C7.70107 21.2366 8.33696 21.5 9 21.5C9.66304 21.5 10.2989 21.2366 10.7678 20.7678Z" fill="#99A7B5"/>
</svg>
